<svg xmlns="http://www.w3.org/2000/svg" width="100" height="69.853" viewBox="0 0 100 69.853">
  <path id="Icon_metro-books" data-name="Icon metro-books" d="M24.66,14.286H7.2A2.919,2.919,0,0,0,4.286,17.2V81.229A2.919,2.919,0,0,0,7.2,84.139H24.66a2.919,2.919,0,0,0,2.911-2.911V17.2A2.919,2.919,0,0,0,24.66,14.286ZM21.749,31.749H10.107V25.928H21.749v5.821ZM53.765,14.286H36.3A2.919,2.919,0,0,0,33.391,17.2V81.229A2.919,2.919,0,0,0,36.3,84.139H53.765a2.919,2.919,0,0,0,2.911-2.911V17.2a2.919,2.919,0,0,0-2.911-2.911ZM50.855,31.749H39.212V25.928H50.855Zm23.02-12.963-15.6,7.858a2.919,2.919,0,0,0-1.29,3.909L83.182,82.538a2.919,2.919,0,0,0,3.909,1.29l15.6-7.858a2.919,2.919,0,0,0,1.29-3.909L77.783,20.076a2.919,2.919,0,0,0-3.909-1.29ZM88.692,81.229a2.911,2.911,0,1,1-2.911-2.911A2.911,2.911,0,0,1,88.692,81.229Z" transform="translate(-4.286 -14.286)"/>
</svg>
